# xmcd
#
# Track frame offsets:
#	150
#	17274
#	33282
#	61892
#	81053
#	103237
#	120285
#	139282
#	160515
#	179280
#	198583
#	214609
#
# Disc length: 3287 seconds
#
# Revision: 0
# Processed by: cddbd v1.5.2PL0 Copyright (c) Steve Scherf et al.
# Submitted via: EasyCDDAExtractor 12.0.4.1
#
DISCID=930cd50c
DTITLE=Lullaby - Sweetz Nightmare
DYEAR=2005
DGENRE=Pop
TTITLE0=อย่า
TTITLE1=สยามบันเทิง
TTITLE2=ในหนึ่งวัน
TTITLE3=อยู่ให้ฉัน
TTITLE4=หนาว
TTITLE5=ที่มีอยู่
TTITLE6=ไม่มี
TTITLE7=รู้สึกดี
TTITLE8=เหมือนเดิม
TTITLE9=ยังไง ยังไง
TTITLE10=กล่อม
TTITLE11=ปล่อย
EXTD=
EXTT0=
EXTT1=
EXTT2=
EXTT3=
EXTT4=
EXTT5=
EXTT6=
EXTT7=
EXTT8=
EXTT9=
EXTT10=
EXTT11=
PLAYORDER=
